# xmcd
#
# Track frame offsets: 
#        150
#        17346
#        31756
#        50568
#        68740
#        92547
#        108315
#        124334
#        139350
#        152666
#        182910
#        198706
#        211918
#
# Disc length: 2978 seconds
#
# Revision: 0
# Processed by: cddbd v1.5.2PL0 Copyright (c) Steve Scherf et al.
# Submitted via: ExactAudioCopy v1.3
#
DISCID=b20ba00d
DTITLE=The Little Red Rooster Blues Band - Broke Again
DYEAR=2015
DGENRE=East Coast Blues
TTITLE0=The Little Red Rooster Blues Ba - Broke Again
TTITLE1=The Little Red Rooster Blues Ba - The Last Ride
TTITLE2=The Little Red Rooster Blues Ba - Jigsaw Puzzle
TTITLE3=The Little Red Rooster Blues Ba - Gristle
TTITLE4=The Little Red Rooster Blues Ba - Missin You
TTITLE5=The Little Red Rooster Blues Ba - Too Drunk To Sleep
TTITLE6=The Little Red Rooster Blues Ba - Midnight Currie
TTITLE7=The Little Red Rooster Blues Ba - Leave Her Alone
TTITLE8=The Little Red Rooster Blues Ba - Dangerous Curves
TTITLE9=The Little Red Rooster Blues Ba - Blues Man Left Us
TTITLE10=The Little Red Rooster Blues Ba - Blue Skies Rollin In
TTITLE11=The Little Red Rooster Blues Ba - Nursery School Blues
TTITLE12=The Little Red Rooster Blues Ba - Goin Back To Ladbroke
EXTD=
EXTT0=
EXTT1=
EXTT2=
EXTT3=
EXTT4=
EXTT5=
EXTT6=
EXTT7=
EXTT8=
EXTT9=
EXTT10=
EXTT11=
EXTT12=
PLAYORDER=
